<svg width="60" height="24" viewBox="0 0 60 24" fill="none" xmlns="http://www.w3.org/2000/svg">
<path d="M2.16907 21.4439C2.16907 18.3909 3.39754 15.8582 3.9062 12.9701C4.52185 9.47455 5.6008 6.12814 6.15344 2.59808C6.37352 1.19226 6.38781 1.64005 6.38781 2.77421C6.38781 3.77326 6.83302 4.69095 6.88414 5.67056C6.98574 7.61767 8.47704 14.2699 10.1102 14.3987C10.7607 14.45 10.9692 13.227 11.0891 12.4613C11.3452 10.8256 12.1353 9.62091 12.7297 8.21464C13.3207 6.81649 14.0889 5.57341 14.6874 4.18324C14.7359 4.07061 15.1935 2.40195 15.3078 2.96991C15.488 3.86482 15.0735 5.46479 15.0735 6.47292C15.0735 10.0542 15.0735 13.6355 15.0735 17.2168C15.0735 18.6453 15.5698 22.8724 15.5698 21.4439" stroke="white" stroke-width="3" stroke-linecap="round"/>
<path d="M21.72 18.048C21.6133 18.048 21.5227 18.0267 21.448 17.984C21.3733 17.9413 21.336 17.8613 21.336 17.744C21.336 17.5947 21.3733 17.424 21.448 17.232C21.5227 17.04 21.608 16.8533 21.704 16.672C21.8 16.48 21.8853 16.3253 21.96 16.208C21.5867 16.6027 21.1973 16.976 20.792 17.328C20.5893 17.4987 20.3653 17.6587 20.12 17.808C19.8747 17.9573 19.6133 18.032 19.336 18.032C19.2293 18.032 19.1547 18 19.112 17.936C19.0693 17.8613 19.048 17.776 19.048 17.68C19.048 17.6267 19.0533 17.5893 19.064 17.568C19.1173 17.152 19.2507 16.72 19.464 16.272C19.6773 15.824 19.9387 15.4027 20.248 15.008C20.5573 14.6133 20.872 14.2933 21.192 14.048C21.5547 13.7707 21.9547 13.632 22.392 13.632H24.232C24.2853 13.632 24.312 13.6533 24.312 13.696C24.312 13.7813 24.264 13.824 24.168 13.824C24.0613 13.824 23.9547 13.8933 23.848 14.032C23.7413 14.16 23.6613 14.2667 23.608 14.352C23.5333 14.4693 23.416 14.6667 23.256 14.944C23.096 15.2213 22.9307 15.5253 22.76 15.856C22.6 16.176 22.4613 16.4747 22.344 16.752C22.2267 17.0293 22.168 17.232 22.168 17.36C22.168 17.5093 22.2427 17.584 22.392 17.584C22.552 17.584 22.7333 17.5093 22.936 17.36C23.1387 17.2107 23.3413 17.0293 23.544 16.816C23.7573 16.592 23.9493 16.3733 24.12 16.16C24.3013 15.936 24.4453 15.76 24.552 15.632C24.616 15.696 24.6107 15.7867 24.536 15.904C24.472 16.0107 24.4133 16.096 24.36 16.16C24.1467 16.4373 23.9013 16.7253 23.624 17.024C23.3467 17.312 23.0427 17.5573 22.712 17.76C22.392 17.952 22.0613 18.048 21.72 18.048ZM19.992 17.488C20.12 17.488 20.296 17.3973 20.52 17.216C20.7547 17.024 21.0053 16.7893 21.272 16.512C21.5387 16.224 21.7893 15.9253 22.024 15.616C22.2587 15.296 22.4507 15.008 22.6 14.752C22.76 14.4853 22.84 14.2827 22.84 14.144C22.84 14.0267 22.8027 13.9467 22.728 13.904C22.664 13.8613 22.5787 13.84 22.472 13.84C22.3013 13.84 22.1147 13.904 21.912 14.032C21.72 14.1493 21.5653 14.2667 21.448 14.384C21.32 14.5013 21.1653 14.688 20.984 14.944C20.8133 15.1893 20.6427 15.4613 20.472 15.76C20.3013 16.0587 20.1573 16.3467 20.04 16.624C19.9227 16.9013 19.864 17.1253 19.864 17.296C19.864 17.424 19.9067 17.488 19.992 17.488ZM25.2071 18.256C25.0151 18.256 24.8125 18.2293 24.5991 18.176C24.3858 18.1227 24.1938 18.0373 24.0231 17.92C23.8631 17.792 23.7565 17.6213 23.7031 17.408C23.6925 17.376 23.6871 17.328 23.6871 17.264C23.6871 17.1147 23.7191 16.9493 23.7831 16.768C23.8578 16.5867 23.9485 16.4587 24.0551 16.384C24.0978 16.3627 24.1298 16.3627 24.1511 16.384C24.1831 16.4053 24.1885 16.4267 24.1671 16.448C24.1565 16.48 24.1405 16.5227 24.1191 16.576C24.0978 16.6187 24.0818 16.6667 24.0711 16.72C24.0391 16.9973 24.0978 17.2427 24.2471 17.456C24.3111 17.5413 24.3858 17.6213 24.4711 17.696C24.5671 17.7707 24.6578 17.8347 24.7431 17.888C24.8178 17.9307 24.9085 17.9627 25.0151 17.984C25.1218 17.9947 25.2285 18 25.3351 18C25.5058 18 25.6711 17.9787 25.8311 17.936C25.9911 17.8933 26.1085 17.824 26.1831 17.728C26.3218 17.5573 26.3911 17.3653 26.3911 17.152C26.3911 16.992 26.3485 16.8213 26.2631 16.64C26.1778 16.4587 26.0445 16.2667 25.8631 16.064C25.7458 15.936 25.6338 15.7973 25.5271 15.648C25.4205 15.4987 25.3511 15.3387 25.3191 15.168C25.3085 15.136 25.2978 15.104 25.2871 15.072C25.2871 15.04 25.2871 15.008 25.2871 14.976C25.1485 15.1787 25.0045 15.3707 24.8551 15.552C24.7165 15.7227 24.5938 15.872 24.4871 16C24.4445 16.064 24.4071 16.096 24.3751 16.096C24.3538 16.096 24.3431 16.0747 24.3431 16.032C24.3431 15.936 24.3858 15.8347 24.4711 15.728C24.5565 15.632 24.6525 15.5147 24.7591 15.376C24.8658 15.2267 24.9511 15.1093 25.0151 15.024C25.1965 14.7573 25.3298 14.5493 25.4151 14.4C25.5111 14.24 25.6125 14.096 25.7191 13.968C25.8365 13.8293 25.9805 13.7173 26.1511 13.632C26.3325 13.5467 26.5191 13.504 26.7111 13.504C26.9351 13.504 27.1378 13.5413 27.3191 13.616C27.5111 13.68 27.6125 13.8507 27.6231 14.128C27.6231 14.256 27.5965 14.3893 27.5431 14.528C27.5005 14.656 27.4525 14.7787 27.3991 14.896C27.3671 14.96 27.3191 15.008 27.2551 15.04C27.2018 15.0613 27.1751 15.0507 27.1751 15.008C27.1751 14.9653 27.1805 14.9173 27.1911 14.864C27.2018 14.8107 27.2071 14.7627 27.2071 14.72C27.2071 14.5387 27.1751 14.3787 27.1111 14.24C27.0578 14.0907 26.9778 13.984 26.8711 13.92C26.7645 13.8453 26.6525 13.808 26.5351 13.808C26.3645 13.808 26.1991 13.8773 26.0391 14.016C25.8791 14.144 25.7991 14.3147 25.7991 14.528C25.7991 14.5493 25.7991 14.576 25.7991 14.608C25.7991 14.64 25.8045 14.6667 25.8151 14.688C25.8578 14.8587 25.9858 15.0507 26.1991 15.264C26.4125 15.4773 26.5778 15.664 26.6951 15.824C26.8978 16.1013 26.9991 16.384 26.9991 16.672C26.9991 16.96 26.9138 17.2267 26.7431 17.472C26.5831 17.7067 26.3645 17.8933 26.0871 18.032C25.8205 18.1813 25.5271 18.256 25.2071 18.256ZM28.6059 18.048C28.4992 18.048 28.4085 18.0267 28.3339 17.984C28.2592 17.9413 28.2219 17.8613 28.2219 17.744C28.2219 17.5947 28.2592 17.4187 28.3339 17.216C28.4192 17.0133 28.5099 16.8107 28.6059 16.608C28.7019 16.4053 28.7819 16.24 28.8459 16.112C28.8992 16.016 28.9685 15.8667 29.0539 15.664C29.1499 15.4507 29.2459 15.232 29.3419 15.008C29.4485 14.7733 29.5339 14.576 29.5979 14.416C29.6725 14.256 29.7099 14.176 29.7099 14.176C29.6139 14.2827 29.4859 14.432 29.3259 14.624C29.1765 14.816 29.0112 15.0187 28.8299 15.232C28.6592 15.4347 28.4992 15.6267 28.3499 15.808C28.2112 15.9893 28.1099 16.1227 28.0459 16.208C28.0139 16.2507 27.9872 16.272 27.9659 16.272C27.9445 16.272 27.9339 16.2453 27.9339 16.192C27.9339 16.1067 27.9605 16.0267 28.0139 15.952C28.1419 15.792 28.2965 15.6 28.4779 15.376C28.6592 15.1413 28.8405 14.9067 29.0219 14.672C29.2139 14.4373 29.3792 14.2293 29.5179 14.048C29.4325 14.048 29.3205 14.0533 29.1819 14.064C29.0539 14.0747 28.9365 14.0907 28.8299 14.112C28.7232 14.1227 28.6645 14.128 28.6539 14.128C28.6005 14.128 28.6059 14.0853 28.6699 14C28.7339 13.9147 28.8192 13.8293 28.9259 13.744C29.0325 13.6587 29.1125 13.616 29.1659 13.616C29.1765 13.616 29.2619 13.6213 29.4219 13.632C29.5819 13.632 29.6992 13.632 29.7739 13.632C29.9872 13.344 30.1952 13.0133 30.3979 12.64C30.6112 12.2667 30.8192 11.856 31.0219 11.408C31.1072 11.3973 31.2512 11.3387 31.4539 11.232C31.6672 11.1147 31.8325 10.9973 31.9499 10.88C32.0032 10.8267 32.0459 10.8 32.0779 10.8C32.1419 10.8 32.1419 10.8427 32.0779 10.928C32.0032 11.0133 31.8752 11.1947 31.6939 11.472C31.5125 11.7387 31.3099 12.064 31.0859 12.448C30.8619 12.8213 30.6485 13.216 30.4459 13.632H31.7419C31.8592 13.632 31.9179 13.648 31.9179 13.68C31.9179 13.7227 31.8379 13.7653 31.6779 13.808C31.4965 13.8613 31.3045 13.8933 31.1019 13.904C30.9099 13.9147 30.7285 13.936 30.5579 13.968C30.3979 14 30.2805 14.0693 30.2059 14.176C30.1419 14.2507 30.0512 14.4107 29.9339 14.656C29.8165 14.9013 29.6885 15.184 29.5499 15.504C29.4219 15.8133 29.3099 16.128 29.2139 16.448C29.1179 16.7573 29.0592 17.0187 29.0379 17.232V17.296C29.0379 17.3813 29.0645 17.4507 29.1179 17.504C29.1712 17.5573 29.2245 17.584 29.2779 17.584C29.4165 17.584 29.5925 17.4987 29.8059 17.328C30.0299 17.1573 30.2592 16.9547 30.4939 16.72C30.7285 16.4747 30.9312 16.2507 31.1019 16.048C31.1765 15.9627 31.2405 15.8827 31.2939 15.808C31.3579 15.7333 31.3952 15.6853 31.4059 15.664C31.4272 15.7067 31.4379 15.7387 31.4379 15.76C31.4379 15.824 31.4165 15.8933 31.3739 15.968C31.3419 16.0427 31.3045 16.1067 31.2619 16.16C31.0592 16.4267 30.8139 16.7093 30.5259 17.008C30.2379 17.296 29.9285 17.5413 29.5979 17.744C29.2779 17.9467 28.9472 18.048 28.6059 18.048ZM28.2737 23.6C27.8684 23.6 27.4791 23.504 27.1057 23.312C26.7217 23.1307 26.4391 22.848 26.2577 22.464C26.1831 22.3253 26.1351 22.176 26.1137 22.016C26.0924 21.8667 26.0817 21.7173 26.0817 21.568V21.408C26.0817 21.3227 26.0924 21.2427 26.1137 21.168C26.1351 21.0933 26.1937 21.056 26.2897 21.056C26.3111 21.056 26.3217 21.0667 26.3217 21.088C26.3217 21.152 26.3164 21.216 26.3057 21.28C26.2951 21.344 26.2897 21.4133 26.2897 21.488C26.2897 21.9787 26.4497 22.352 26.7697 22.608C27.0791 22.864 27.4684 22.992 27.9377 22.992C28.1297 22.992 28.3271 22.9707 28.5297 22.928C28.7324 22.8853 28.9191 22.8267 29.0897 22.752C29.7724 22.464 30.3644 22.048 30.8658 21.504C31.3778 20.96 31.8204 20.3467 32.1938 19.664C32.5778 18.9813 32.9138 18.2827 33.2018 17.568C33.5004 16.8427 33.7778 16.16 34.0338 15.52C33.8098 15.8827 33.5644 16.208 33.2978 16.496C33.0311 16.7733 32.7324 17.0507 32.4018 17.328C32.1991 17.4987 31.9751 17.6587 31.7298 17.808C31.4951 17.9573 31.2391 18.032 30.9618 18.032C30.8551 18.032 30.7804 18 30.7378 17.936C30.6951 17.8613 30.6738 17.776 30.6738 17.68V17.568C30.7271 17.152 30.8604 16.72 31.0738 16.272C31.2978 15.824 31.5644 15.4027 31.8738 15.008C32.1831 14.6133 32.4978 14.2933 32.8178 14.048C33.1804 13.7707 33.5804 13.632 34.0178 13.632H35.8578C35.9111 13.632 35.9378 13.6533 35.9378 13.696C35.9378 13.7813 35.8898 13.824 35.7938 13.824C35.6764 13.824 35.5644 13.872 35.4578 13.968C35.3511 14.064 35.2711 14.1547 35.2178 14.24C35.1111 14.4107 34.9724 14.672 34.8018 15.024C34.6311 15.376 34.4444 15.7813 34.2418 16.24C34.0391 16.688 33.8364 17.1467 33.6338 17.616C33.4311 18.0747 33.2444 18.5067 33.0738 18.912C32.8178 19.52 32.5244 20.112 32.1938 20.688C31.8738 21.2747 31.4898 21.7973 31.0418 22.256C30.6044 22.7253 30.0817 23.0933 29.4737 23.36C29.1111 23.52 28.7111 23.6 28.2737 23.6ZM31.6178 17.488C31.7458 17.488 31.9218 17.3973 32.1458 17.216C32.3698 17.024 32.6151 16.7893 32.8818 16.512C33.1484 16.224 33.3991 15.9253 33.6338 15.616C33.8684 15.296 34.0604 15.008 34.2098 14.752C34.3698 14.4853 34.4498 14.2827 34.4498 14.144C34.4498 14.0267 34.4124 13.9467 34.3378 13.904C34.2738 13.8613 34.1884 13.84 34.0818 13.84C33.9111 13.84 33.7298 13.904 33.5378 14.032C33.3458 14.1493 33.1911 14.2667 33.0738 14.384C32.9458 14.5013 32.7911 14.688 32.6098 14.944C32.4391 15.1893 32.2631 15.4613 32.0818 15.76C31.9111 16.0587 31.7671 16.3467 31.6497 16.624C31.5324 16.9013 31.4738 17.1253 31.4738 17.296C31.4738 17.424 31.5218 17.488 31.6178 17.488ZM35.4681 18.224C35.4255 18.224 35.4255 18.1813 35.4681 18.096C35.5215 18 35.5695 17.8933 35.6121 17.776C35.6655 17.6587 35.7188 17.5307 35.7721 17.392C35.8788 17.136 35.9961 16.848 36.1241 16.528C36.2521 16.208 36.3748 15.8987 36.4921 15.6C36.6095 15.2907 36.7108 15.0293 36.7961 14.816C36.8921 14.592 36.9561 14.448 36.9881 14.384C36.8388 14.544 36.6575 14.7467 36.4441 14.992C36.2415 15.2267 36.0495 15.456 35.8681 15.68C35.6868 15.904 35.5481 16.08 35.4521 16.208C35.4201 16.2507 35.3935 16.272 35.3721 16.272C35.3508 16.272 35.3401 16.2453 35.3401 16.192C35.3401 16.1067 35.3668 16.0267 35.4201 15.952C35.6228 15.696 35.8468 15.408 36.0921 15.088C36.3481 14.768 36.5775 14.4747 36.7801 14.208C36.9828 13.9307 37.1108 13.7493 37.1641 13.664C37.2815 13.6427 37.4521 13.6107 37.6761 13.568C37.9108 13.5253 38.0708 13.4667 38.1561 13.392C38.1881 13.36 38.2201 13.344 38.2521 13.344C38.2735 13.344 38.2841 13.3653 38.2841 13.408C38.2948 13.44 38.2841 13.4773 38.2521 13.52C38.1881 13.584 38.0921 13.7227 37.9641 13.936C37.8468 14.1493 37.7135 14.3947 37.5641 14.672C37.4148 14.9493 37.2708 15.216 37.1321 15.472C37.2388 15.312 37.3775 15.1253 37.5481 14.912C37.7295 14.688 37.9268 14.4747 38.1401 14.272C38.3535 14.0587 38.5668 13.8827 38.7801 13.744C39.0041 13.6053 39.2121 13.536 39.4041 13.536C39.5428 13.536 39.6601 13.568 39.7561 13.632C39.8521 13.6853 39.9268 13.7867 39.9801 13.936C40.0121 14.0107 40.0281 14.096 40.0281 14.192C40.0281 14.3733 39.9801 14.5493 39.8841 14.72C39.7988 14.88 39.7348 15.0027 39.6921 15.088C39.6815 15.12 39.6441 15.152 39.5801 15.184C39.5161 15.2053 39.4895 15.1947 39.5001 15.152C39.5108 15.0987 39.5161 15.0453 39.5161 14.992C39.5268 14.9387 39.5321 14.88 39.5321 14.816C39.5321 14.6347 39.4948 14.4693 39.4201 14.32C39.3561 14.1707 39.2335 14.096 39.0521 14.096C38.8815 14.096 38.6735 14.2027 38.4281 14.416C38.1828 14.6293 37.9375 14.8747 37.6921 15.152C37.3828 15.5147 37.1375 15.8613 36.9561 16.192C36.7748 16.512 36.6255 16.8267 36.5081 17.136C36.4441 17.3067 36.3801 17.4773 36.3161 17.648C36.2521 17.808 36.2041 17.936 36.1721 18.032C36.0335 18.0427 35.8948 18.0747 35.7561 18.128C35.6175 18.192 35.5215 18.224 35.4681 18.224ZM41.9075 18.048C41.8008 18.048 41.7102 18.0267 41.6355 17.984C41.5608 17.9413 41.5235 17.8613 41.5235 17.744C41.5235 17.5947 41.5608 17.424 41.6355 17.232C41.7102 17.04 41.7955 16.8533 41.8915 16.672C41.9875 16.48 42.0728 16.3253 42.1475 16.208C41.7742 16.6027 41.3848 16.976 40.9795 17.328C40.7768 17.4987 40.5528 17.6587 40.3075 17.808C40.0622 17.9573 39.8008 18.032 39.5235 18.032C39.4168 18.032 39.3422 18 39.2995 17.936C39.2568 17.8613 39.2355 17.776 39.2355 17.68C39.2355 17.6267 39.2408 17.5893 39.2515 17.568C39.3048 17.152 39.4382 16.72 39.6515 16.272C39.8648 15.824 40.1262 15.4027 40.4355 15.008C40.7448 14.6133 41.0595 14.2933 41.3795 14.048C41.7422 13.7707 42.1422 13.632 42.5795 13.632H44.4195C44.4728 13.632 44.4995 13.6533 44.4995 13.696C44.4995 13.7813 44.4515 13.824 44.3555 13.824C44.2488 13.824 44.1422 13.8933 44.0355 14.032C43.9288 14.16 43.8488 14.2667 43.7955 14.352C43.7208 14.4693 43.6035 14.6667 43.4435 14.944C43.2835 15.2213 43.1182 15.5253 42.9475 15.856C42.7875 16.176 42.6488 16.4747 42.5315 16.752C42.4142 17.0293 42.3555 17.232 42.3555 17.36C42.3555 17.5093 42.4302 17.584 42.5795 17.584C42.7395 17.584 42.9208 17.5093 43.1235 17.36C43.3262 17.2107 43.5288 17.0293 43.7315 16.816C43.9448 16.592 44.1368 16.3733 44.3075 16.16C44.4888 15.936 44.6328 15.76 44.7395 15.632C44.8035 15.696 44.7982 15.7867 44.7235 15.904C44.6595 16.0107 44.6008 16.096 44.5475 16.16C44.3342 16.4373 44.0888 16.7253 43.8115 17.024C43.5342 17.312 43.2302 17.5573 42.8995 17.76C42.5795 17.952 42.2488 18.048 41.9075 18.048ZM40.1795 17.488C40.3075 17.488 40.4835 17.3973 40.7075 17.216C40.9422 17.024 41.1928 16.7893 41.4595 16.512C41.7262 16.224 41.9768 15.9253 42.2115 15.616C42.4462 15.296 42.6382 15.008 42.7875 14.752C42.9475 14.4853 43.0275 14.2827 43.0275 14.144C43.0275 14.0267 42.9902 13.9467 42.9155 13.904C42.8515 13.8613 42.7662 13.84 42.6595 13.84C42.4888 13.84 42.3022 13.904 42.0995 14.032C41.9075 14.1493 41.7528 14.2667 41.6355 14.384C41.5075 14.5013 41.3528 14.688 41.1715 14.944C41.0008 15.1893 40.8302 15.4613 40.6595 15.76C40.4888 16.0587 40.3448 16.3467 40.2275 16.624C40.1102 16.9013 40.0515 17.1253 40.0515 17.296C40.0515 17.424 40.0942 17.488 40.1795 17.488ZM44.5306 18.24C44.488 18.24 44.488 18.192 44.5306 18.096C44.584 18 44.632 17.8933 44.6746 17.776C44.728 17.6587 44.7813 17.5307 44.8346 17.392C44.9413 17.136 45.0586 16.848 45.1866 16.528C45.3146 16.208 45.4373 15.8987 45.5546 15.6C45.672 15.2907 45.7733 15.0293 45.8586 14.816C45.9546 14.592 46.0186 14.448 46.0506 14.384C45.9013 14.544 45.72 14.7467 45.5066 14.992C45.304 15.2267 45.112 15.456 44.9306 15.68C44.7493 15.904 44.6106 16.08 44.5146 16.208C44.4826 16.2507 44.456 16.272 44.4346 16.272C44.4133 16.272 44.4026 16.2453 44.4026 16.192C44.4026 16.1067 44.4293 16.0267 44.4826 15.952C44.6853 15.696 44.9093 15.408 45.1546 15.088C45.4106 14.768 45.64 14.4747 45.8426 14.208C46.0453 13.9307 46.1733 13.7493 46.2266 13.664C46.344 13.6427 46.5146 13.6107 46.7386 13.568C46.9733 13.5253 47.1333 13.4667 47.2186 13.392C47.2506 13.36 47.2826 13.344 47.3146 13.344C47.336 13.344 47.3466 13.3653 47.3466 13.408C47.3573 13.44 47.3466 13.4773 47.3146 13.52C47.2506 13.5947 47.1386 13.7707 46.9786 14.048C46.8293 14.3147 46.664 14.6133 46.4826 14.944C46.312 15.2747 46.152 15.5733 46.0026 15.84C46.1733 15.6373 46.3386 15.4453 46.4986 15.264C46.6693 15.0827 46.7866 14.9547 46.8506 14.88C46.9786 14.752 47.1546 14.592 47.3786 14.4C47.6026 14.208 47.8373 14.032 48.0826 13.872C48.328 13.712 48.5413 13.6213 48.7226 13.6C48.7653 13.5893 48.8026 13.584 48.8346 13.584C48.8666 13.584 48.8986 13.584 48.9306 13.584C49.1333 13.584 49.2346 13.6587 49.2346 13.808C49.2346 13.872 49.2186 13.9467 49.1866 14.032C49.1546 14.1173 49.112 14.2027 49.0586 14.288C48.9946 14.416 48.888 14.6187 48.7386 14.896C48.5893 15.1627 48.456 15.408 48.3386 15.632L49.0906 14.88C49.2186 14.752 49.3946 14.592 49.6186 14.4C49.8426 14.208 50.0773 14.032 50.3226 13.872C50.568 13.712 50.7813 13.6213 50.9626 13.6C51.0053 13.5893 51.0426 13.584 51.0746 13.584C51.1173 13.584 51.1493 13.584 51.1706 13.584C51.4053 13.584 51.5226 13.6693 51.5226 13.84C51.5226 13.968 51.4533 14.1387 51.3146 14.352C51.24 14.4693 51.1226 14.6667 50.9626 14.944C50.8026 15.2213 50.6373 15.5253 50.4666 15.856C50.3066 16.176 50.168 16.4747 50.0506 16.752C49.9333 17.0293 49.8746 17.232 49.8746 17.36C49.8746 17.5093 49.9493 17.584 50.0986 17.584C50.2373 17.584 50.4133 17.504 50.6266 17.344C50.8506 17.1733 51.0746 16.9707 51.2986 16.736C51.5333 16.5013 51.736 16.2773 51.9066 16.064C51.9813 15.9787 52.0506 15.8933 52.1146 15.808C52.1893 15.712 52.232 15.6587 52.2426 15.648C52.264 15.6693 52.2746 15.7067 52.2746 15.76C52.2746 15.8347 52.248 15.9093 52.1946 15.984C52.152 16.048 52.1093 16.1067 52.0666 16.16C51.864 16.4267 51.6293 16.704 51.3626 16.992C51.1066 17.28 50.824 17.5253 50.5146 17.728C50.2053 17.92 49.8746 18.032 49.5226 18.064C49.416 18.0747 49.3093 18.0533 49.2026 18C49.096 17.9467 49.0426 17.8613 49.0426 17.744C49.0426 17.5947 49.08 17.4187 49.1546 17.216C49.24 17.0133 49.3306 16.8107 49.4266 16.608C49.5333 16.4053 49.6133 16.24 49.6666 16.112C49.8586 15.7387 50.0346 15.3867 50.1946 15.056C50.3546 14.7253 50.4666 14.4907 50.5306 14.352C50.5626 14.288 50.5786 14.2347 50.5786 14.192C50.5786 14.1173 50.52 14.112 50.4026 14.176C50.2853 14.24 50.1413 14.336 49.9706 14.464C49.8106 14.592 49.6613 14.72 49.5226 14.848C49.384 14.9653 49.2933 15.0453 49.2506 15.088C49.0693 15.2693 48.8506 15.5147 48.5946 15.824C48.3493 16.1333 48.12 16.4587 47.9066 16.8C47.6933 17.1307 47.544 17.44 47.4586 17.728C47.352 17.824 47.2506 17.872 47.1546 17.872C47.08 17.872 47.016 17.8453 46.9626 17.792C46.92 17.7387 46.8986 17.6747 46.8986 17.6C46.8986 17.3867 46.9626 17.136 47.0906 16.848C47.2293 16.5493 47.3413 16.304 47.4266 16.112C47.6186 15.7387 47.7946 15.3867 47.9546 15.056C48.1146 14.7253 48.2266 14.4907 48.2906 14.352C48.3226 14.288 48.3386 14.2347 48.3386 14.192C48.3386 14.1173 48.28 14.112 48.1626 14.176C48.0453 14.24 47.9013 14.336 47.7306 14.464C47.5706 14.592 47.4213 14.72 47.2826 14.848C47.144 14.9653 47.0533 15.0453 47.0106 15.088C46.7546 15.3547 46.5146 15.6267 46.2906 15.904C46.0773 16.1813 45.896 16.48 45.7466 16.8C45.6613 16.992 45.5706 17.2053 45.4746 17.44C45.3786 17.6747 45.2986 17.872 45.2346 18.032C45.096 18.0427 44.9573 18.08 44.8186 18.144C44.68 18.208 44.584 18.24 44.5306 18.24Z" fill="white"/>
</svg>
