<svg width="58" height="24" viewBox="0 0 58 24" fill="none" xmlns="http://www.w3.org/2000/svg">
<path d="M1 20.7243C1 17.6714 2.22848 15.1387 2.73713 12.2506C3.35278 8.755 4.43173 5.4086 4.98437 1.87854C5.20446 0.472714 5.21875 0.920506 5.21875 2.05467C5.21875 3.05372 5.66395 3.97141 5.71507 4.95101C5.81668 6.89813 7.30797 13.5504 8.94117 13.6792C9.59165 13.7305 9.80016 12.5074 9.92003 11.7418C10.1761 10.1061 10.9662 8.90137 11.5606 7.4951C12.1516 6.09695 12.9199 4.85387 13.5184 3.4637C13.5669 3.35106 14.0245 1.68241 14.1388 2.25037C14.3189 3.14528 13.9044 4.74525 13.9044 5.75338C13.9044 9.33467 13.9044 12.916 13.9044 16.4973C13.9044 17.9257 14.4007 22.1528 14.4007 20.7243" stroke="#080000" stroke-width="2" stroke-linecap="round"/>
<path d="M19.72 18.048C19.6133 18.048 19.5227 18.0267 19.448 17.984C19.3733 17.9413 19.336 17.8613 19.336 17.744C19.336 17.5947 19.3733 17.424 19.448 17.232C19.5227 17.04 19.608 16.8533 19.704 16.672C19.8 16.48 19.8853 16.3253 19.96 16.208C19.5867 16.6027 19.1973 16.976 18.792 17.328C18.5893 17.4987 18.3653 17.6587 18.12 17.808C17.8747 17.9573 17.6133 18.032 17.336 18.032C17.2293 18.032 17.1547 18 17.112 17.936C17.0693 17.8613 17.048 17.776 17.048 17.68C17.048 17.6267 17.0533 17.5893 17.064 17.568C17.1173 17.152 17.2507 16.72 17.464 16.272C17.6773 15.824 17.9387 15.4027 18.248 15.008C18.5573 14.6133 18.872 14.2933 19.192 14.048C19.5547 13.7707 19.9547 13.632 20.392 13.632H22.232C22.2853 13.632 22.312 13.6533 22.312 13.696C22.312 13.7813 22.264 13.824 22.168 13.824C22.0613 13.824 21.9547 13.8933 21.848 14.032C21.7413 14.16 21.6613 14.2667 21.608 14.352C21.5333 14.4693 21.416 14.6667 21.256 14.944C21.096 15.2213 20.9307 15.5253 20.76 15.856C20.6 16.176 20.4613 16.4747 20.344 16.752C20.2267 17.0293 20.168 17.232 20.168 17.36C20.168 17.5093 20.2427 17.584 20.392 17.584C20.552 17.584 20.7333 17.5093 20.936 17.36C21.1387 17.2107 21.3413 17.0293 21.544 16.816C21.7573 16.592 21.9493 16.3733 22.12 16.16C22.3013 15.936 22.4453 15.76 22.552 15.632C22.616 15.696 22.6107 15.7867 22.536 15.904C22.472 16.0107 22.4133 16.096 22.36 16.16C22.1467 16.4373 21.9013 16.7253 21.624 17.024C21.3467 17.312 21.0427 17.5573 20.712 17.76C20.392 17.952 20.0613 18.048 19.72 18.048ZM17.992 17.488C18.12 17.488 18.296 17.3973 18.52 17.216C18.7547 17.024 19.0053 16.7893 19.272 16.512C19.5387 16.224 19.7893 15.9253 20.024 15.616C20.2587 15.296 20.4507 15.008 20.6 14.752C20.76 14.4853 20.84 14.2827 20.84 14.144C20.84 14.0267 20.8027 13.9467 20.728 13.904C20.664 13.8613 20.5787 13.84 20.472 13.84C20.3013 13.84 20.1147 13.904 19.912 14.032C19.72 14.1493 19.5653 14.2667 19.448 14.384C19.32 14.5013 19.1653 14.688 18.984 14.944C18.8133 15.1893 18.6427 15.4613 18.472 15.76C18.3013 16.0587 18.1573 16.3467 18.04 16.624C17.9227 16.9013 17.864 17.1253 17.864 17.296C17.864 17.424 17.9067 17.488 17.992 17.488ZM23.2071 18.256C23.0151 18.256 22.8125 18.2293 22.5991 18.176C22.3858 18.1227 22.1938 18.0373 22.0231 17.92C21.8631 17.792 21.7565 17.6213 21.7031 17.408C21.6925 17.376 21.6871 17.328 21.6871 17.264C21.6871 17.1147 21.7191 16.9493 21.7831 16.768C21.8578 16.5867 21.9485 16.4587 22.0551 16.384C22.0978 16.3627 22.1298 16.3627 22.1511 16.384C22.1831 16.4053 22.1885 16.4267 22.1671 16.448C22.1565 16.48 22.1405 16.5227 22.1191 16.576C22.0978 16.6187 22.0818 16.6667 22.0711 16.72C22.0391 16.9973 22.0978 17.2427 22.2471 17.456C22.3111 17.5413 22.3858 17.6213 22.4711 17.696C22.5671 17.7707 22.6578 17.8347 22.7431 17.888C22.8178 17.9307 22.9085 17.9627 23.0151 17.984C23.1218 17.9947 23.2285 18 23.3351 18C23.5058 18 23.6711 17.9787 23.8311 17.936C23.9911 17.8933 24.1085 17.824 24.1831 17.728C24.3218 17.5573 24.3911 17.3653 24.3911 17.152C24.3911 16.992 24.3485 16.8213 24.2631 16.64C24.1778 16.4587 24.0445 16.2667 23.8631 16.064C23.7458 15.936 23.6338 15.7973 23.5271 15.648C23.4205 15.4987 23.3511 15.3387 23.3191 15.168C23.3085 15.136 23.2978 15.104 23.2871 15.072C23.2871 15.04 23.2871 15.008 23.2871 14.976C23.1485 15.1787 23.0045 15.3707 22.8551 15.552C22.7165 15.7227 22.5938 15.872 22.4871 16C22.4445 16.064 22.4071 16.096 22.3751 16.096C22.3538 16.096 22.3431 16.0747 22.3431 16.032C22.3431 15.936 22.3858 15.8347 22.4711 15.728C22.5565 15.632 22.6525 15.5147 22.7591 15.376C22.8658 15.2267 22.9511 15.1093 23.0151 15.024C23.1965 14.7573 23.3298 14.5493 23.4151 14.4C23.5111 14.24 23.6125 14.096 23.7191 13.968C23.8365 13.8293 23.9805 13.7173 24.1511 13.632C24.3325 13.5467 24.5191 13.504 24.7111 13.504C24.9351 13.504 25.1378 13.5413 25.3191 13.616C25.5111 13.68 25.6125 13.8507 25.6231 14.128C25.6231 14.256 25.5965 14.3893 25.5431 14.528C25.5005 14.656 25.4525 14.7787 25.3991 14.896C25.3671 14.96 25.3191 15.008 25.2551 15.04C25.2018 15.0613 25.1751 15.0507 25.1751 15.008C25.1751 14.9653 25.1805 14.9173 25.1911 14.864C25.2018 14.8107 25.2071 14.7627 25.2071 14.72C25.2071 14.5387 25.1751 14.3787 25.1111 14.24C25.0578 14.0907 24.9778 13.984 24.8711 13.92C24.7645 13.8453 24.6525 13.808 24.5351 13.808C24.3645 13.808 24.1991 13.8773 24.0391 14.016C23.8791 14.144 23.7991 14.3147 23.7991 14.528C23.7991 14.5493 23.7991 14.576 23.7991 14.608C23.7991 14.64 23.8045 14.6667 23.8151 14.688C23.8578 14.8587 23.9858 15.0507 24.1991 15.264C24.4125 15.4773 24.5778 15.664 24.6951 15.824C24.8978 16.1013 24.9991 16.384 24.9991 16.672C24.9991 16.96 24.9138 17.2267 24.7431 17.472C24.5831 17.7067 24.3645 17.8933 24.0871 18.032C23.8205 18.1813 23.5271 18.256 23.2071 18.256ZM26.6059 18.048C26.4992 18.048 26.4085 18.0267 26.3339 17.984C26.2592 17.9413 26.2219 17.8613 26.2219 17.744C26.2219 17.5947 26.2592 17.4187 26.3339 17.216C26.4192 17.0133 26.5099 16.8107 26.6059 16.608C26.7019 16.4053 26.7819 16.24 26.8459 16.112C26.8992 16.016 26.9685 15.8667 27.0539 15.664C27.1499 15.4507 27.2459 15.232 27.3419 15.008C27.4485 14.7733 27.5339 14.576 27.5979 14.416C27.6725 14.256 27.7099 14.176 27.7099 14.176C27.6139 14.2827 27.4859 14.432 27.3259 14.624C27.1765 14.816 27.0112 15.0187 26.8299 15.232C26.6592 15.4347 26.4992 15.6267 26.3499 15.808C26.2112 15.9893 26.1099 16.1227 26.0459 16.208C26.0139 16.2507 25.9872 16.272 25.9659 16.272C25.9445 16.272 25.9339 16.2453 25.9339 16.192C25.9339 16.1067 25.9605 16.0267 26.0139 15.952C26.1419 15.792 26.2965 15.6 26.4779 15.376C26.6592 15.1413 26.8405 14.9067 27.0219 14.672C27.2139 14.4373 27.3792 14.2293 27.5179 14.048C27.4325 14.048 27.3205 14.0533 27.1819 14.064C27.0539 14.0747 26.9365 14.0907 26.8299 14.112C26.7232 14.1227 26.6645 14.128 26.6539 14.128C26.6005 14.128 26.6059 14.0853 26.6699 14C26.7339 13.9147 26.8192 13.8293 26.9259 13.744C27.0325 13.6587 27.1125 13.616 27.1659 13.616C27.1765 13.616 27.2619 13.6213 27.4219 13.632C27.5819 13.632 27.6992 13.632 27.7739 13.632C27.9872 13.344 28.1952 13.0133 28.3979 12.64C28.6112 12.2667 28.8192 11.856 29.0219 11.408C29.1072 11.3973 29.2512 11.3387 29.4539 11.232C29.6672 11.1147 29.8325 10.9973 29.9499 10.88C30.0032 10.8267 30.0459 10.8 30.0779 10.8C30.1419 10.8 30.1419 10.8427 30.0779 10.928C30.0032 11.0133 29.8752 11.1947 29.6939 11.472C29.5125 11.7387 29.3099 12.064 29.0859 12.448C28.8619 12.8213 28.6485 13.216 28.4459 13.632H29.7419C29.8592 13.632 29.9179 13.648 29.9179 13.68C29.9179 13.7227 29.8379 13.7653 29.6779 13.808C29.4965 13.8613 29.3045 13.8933 29.1019 13.904C28.9099 13.9147 28.7285 13.936 28.5579 13.968C28.3979 14 28.2805 14.0693 28.2059 14.176C28.1419 14.2507 28.0512 14.4107 27.9339 14.656C27.8165 14.9013 27.6885 15.184 27.5499 15.504C27.4219 15.8133 27.3099 16.128 27.2139 16.448C27.1179 16.7573 27.0592 17.0187 27.0379 17.232V17.296C27.0379 17.3813 27.0645 17.4507 27.1179 17.504C27.1712 17.5573 27.2245 17.584 27.2779 17.584C27.4165 17.584 27.5925 17.4987 27.8059 17.328C28.0299 17.1573 28.2592 16.9547 28.4939 16.72C28.7285 16.4747 28.9312 16.2507 29.1019 16.048C29.1765 15.9627 29.2405 15.8827 29.2939 15.808C29.3579 15.7333 29.3952 15.6853 29.4059 15.664C29.4272 15.7067 29.4379 15.7387 29.4379 15.76C29.4379 15.824 29.4165 15.8933 29.3739 15.968C29.3419 16.0427 29.3045 16.1067 29.2619 16.16C29.0592 16.4267 28.8139 16.7093 28.5259 17.008C28.2379 17.296 27.9285 17.5413 27.5979 17.744C27.2779 17.9467 26.9472 18.048 26.6059 18.048ZM26.2737 23.6C25.8684 23.6 25.4791 23.504 25.1057 23.312C24.7217 23.1307 24.4391 22.848 24.2577 22.464C24.1831 22.3253 24.1351 22.176 24.1137 22.016C24.0924 21.8667 24.0817 21.7173 24.0817 21.568V21.408C24.0817 21.3227 24.0924 21.2427 24.1137 21.168C24.1351 21.0933 24.1937 21.056 24.2897 21.056C24.3111 21.056 24.3217 21.0667 24.3217 21.088C24.3217 21.152 24.3164 21.216 24.3057 21.28C24.2951 21.344 24.2897 21.4133 24.2897 21.488C24.2897 21.9787 24.4497 22.352 24.7697 22.608C25.0791 22.864 25.4684 22.992 25.9377 22.992C26.1297 22.992 26.3271 22.9707 26.5297 22.928C26.7324 22.8853 26.9191 22.8267 27.0897 22.752C27.7724 22.464 28.3644 22.048 28.8658 21.504C29.3778 20.96 29.8204 20.3467 30.1938 19.664C30.5778 18.9813 30.9138 18.2827 31.2018 17.568C31.5004 16.8427 31.7778 16.16 32.0338 15.52C31.8098 15.8827 31.5644 16.208 31.2978 16.496C31.0311 16.7733 30.7324 17.0507 30.4018 17.328C30.1991 17.4987 29.9751 17.6587 29.7298 17.808C29.4951 17.9573 29.2391 18.032 28.9618 18.032C28.8551 18.032 28.7804 18 28.7378 17.936C28.6951 17.8613 28.6738 17.776 28.6738 17.68V17.568C28.7271 17.152 28.8604 16.72 29.0738 16.272C29.2978 15.824 29.5644 15.4027 29.8738 15.008C30.1831 14.6133 30.4978 14.2933 30.8178 14.048C31.1804 13.7707 31.5804 13.632 32.0178 13.632H33.8578C33.9111 13.632 33.9378 13.6533 33.9378 13.696C33.9378 13.7813 33.8898 13.824 33.7938 13.824C33.6764 13.824 33.5644 13.872 33.4578 13.968C33.3511 14.064 33.2711 14.1547 33.2178 14.24C33.1111 14.4107 32.9724 14.672 32.8018 15.024C32.6311 15.376 32.4444 15.7813 32.2418 16.24C32.0391 16.688 31.8364 17.1467 31.6338 17.616C31.4311 18.0747 31.2444 18.5067 31.0738 18.912C30.8178 19.52 30.5244 20.112 30.1938 20.688C29.8738 21.2747 29.4898 21.7973 29.0418 22.256C28.6044 22.7253 28.0817 23.0933 27.4737 23.36C27.1111 23.52 26.7111 23.6 26.2737 23.6ZM29.6178 17.488C29.7458 17.488 29.9218 17.3973 30.1458 17.216C30.3698 17.024 30.6151 16.7893 30.8818 16.512C31.1484 16.224 31.3991 15.9253 31.6338 15.616C31.8684 15.296 32.0604 15.008 32.2098 14.752C32.3698 14.4853 32.4498 14.2827 32.4498 14.144C32.4498 14.0267 32.4124 13.9467 32.3378 13.904C32.2738 13.8613 32.1884 13.84 32.0818 13.84C31.9111 13.84 31.7298 13.904 31.5378 14.032C31.3458 14.1493 31.1911 14.2667 31.0738 14.384C30.9458 14.5013 30.7911 14.688 30.6098 14.944C30.4391 15.1893 30.2631 15.4613 30.0818 15.76C29.9111 16.0587 29.7671 16.3467 29.6497 16.624C29.5324 16.9013 29.4738 17.1253 29.4738 17.296C29.4738 17.424 29.5218 17.488 29.6178 17.488ZM33.4681 18.224C33.4255 18.224 33.4255 18.1813 33.4681 18.096C33.5215 18 33.5695 17.8933 33.6121 17.776C33.6655 17.6587 33.7188 17.5307 33.7721 17.392C33.8788 17.136 33.9961 16.848 34.1241 16.528C34.2521 16.208 34.3748 15.8987 34.4921 15.6C34.6095 15.2907 34.7108 15.0293 34.7961 14.816C34.8921 14.592 34.9561 14.448 34.9881 14.384C34.8388 14.544 34.6575 14.7467 34.4441 14.992C34.2415 15.2267 34.0495 15.456 33.8681 15.68C33.6868 15.904 33.5481 16.08 33.4521 16.208C33.4201 16.2507 33.3935 16.272 33.3721 16.272C33.3508 16.272 33.3401 16.2453 33.3401 16.192C33.3401 16.1067 33.3668 16.0267 33.4201 15.952C33.6228 15.696 33.8468 15.408 34.0921 15.088C34.3481 14.768 34.5775 14.4747 34.7801 14.208C34.9828 13.9307 35.1108 13.7493 35.1641 13.664C35.2815 13.6427 35.4521 13.6107 35.6761 13.568C35.9108 13.5253 36.0708 13.4667 36.1561 13.392C36.1881 13.36 36.2201 13.344 36.2521 13.344C36.2735 13.344 36.2841 13.3653 36.2841 13.408C36.2948 13.44 36.2841 13.4773 36.2521 13.52C36.1881 13.584 36.0921 13.7227 35.9641 13.936C35.8468 14.1493 35.7135 14.3947 35.5641 14.672C35.4148 14.9493 35.2708 15.216 35.1321 15.472C35.2388 15.312 35.3775 15.1253 35.5481 14.912C35.7295 14.688 35.9268 14.4747 36.1401 14.272C36.3535 14.0587 36.5668 13.8827 36.7801 13.744C37.0041 13.6053 37.2121 13.536 37.4041 13.536C37.5428 13.536 37.6601 13.568 37.7561 13.632C37.8521 13.6853 37.9268 13.7867 37.9801 13.936C38.0121 14.0107 38.0281 14.096 38.0281 14.192C38.0281 14.3733 37.9801 14.5493 37.8841 14.72C37.7988 14.88 37.7348 15.0027 37.6921 15.088C37.6815 15.12 37.6441 15.152 37.5801 15.184C37.5161 15.2053 37.4895 15.1947 37.5001 15.152C37.5108 15.0987 37.5161 15.0453 37.5161 14.992C37.5268 14.9387 37.5321 14.88 37.5321 14.816C37.5321 14.6347 37.4948 14.4693 37.4201 14.32C37.3561 14.1707 37.2335 14.096 37.0521 14.096C36.8815 14.096 36.6735 14.2027 36.4281 14.416C36.1828 14.6293 35.9375 14.8747 35.6921 15.152C35.3828 15.5147 35.1375 15.8613 34.9561 16.192C34.7748 16.512 34.6255 16.8267 34.5081 17.136C34.4441 17.3067 34.3801 17.4773 34.3161 17.648C34.2521 17.808 34.2041 17.936 34.1721 18.032C34.0335 18.0427 33.8948 18.0747 33.7561 18.128C33.6175 18.192 33.5215 18.224 33.4681 18.224ZM39.9075 18.048C39.8008 18.048 39.7102 18.0267 39.6355 17.984C39.5608 17.9413 39.5235 17.8613 39.5235 17.744C39.5235 17.5947 39.5608 17.424 39.6355 17.232C39.7102 17.04 39.7955 16.8533 39.8915 16.672C39.9875 16.48 40.0728 16.3253 40.1475 16.208C39.7742 16.6027 39.3848 16.976 38.9795 17.328C38.7768 17.4987 38.5528 17.6587 38.3075 17.808C38.0622 17.9573 37.8008 18.032 37.5235 18.032C37.4168 18.032 37.3422 18 37.2995 17.936C37.2568 17.8613 37.2355 17.776 37.2355 17.68C37.2355 17.6267 37.2408 17.5893 37.2515 17.568C37.3048 17.152 37.4382 16.72 37.6515 16.272C37.8648 15.824 38.1262 15.4027 38.4355 15.008C38.7448 14.6133 39.0595 14.2933 39.3795 14.048C39.7422 13.7707 40.1422 13.632 40.5795 13.632H42.4195C42.4728 13.632 42.4995 13.6533 42.4995 13.696C42.4995 13.7813 42.4515 13.824 42.3555 13.824C42.2488 13.824 42.1422 13.8933 42.0355 14.032C41.9288 14.16 41.8488 14.2667 41.7955 14.352C41.7208 14.4693 41.6035 14.6667 41.4435 14.944C41.2835 15.2213 41.1182 15.5253 40.9475 15.856C40.7875 16.176 40.6488 16.4747 40.5315 16.752C40.4142 17.0293 40.3555 17.232 40.3555 17.36C40.3555 17.5093 40.4302 17.584 40.5795 17.584C40.7395 17.584 40.9208 17.5093 41.1235 17.36C41.3262 17.2107 41.5288 17.0293 41.7315 16.816C41.9448 16.592 42.1368 16.3733 42.3075 16.16C42.4888 15.936 42.6328 15.76 42.7395 15.632C42.8035 15.696 42.7982 15.7867 42.7235 15.904C42.6595 16.0107 42.6008 16.096 42.5475 16.16C42.3342 16.4373 42.0888 16.7253 41.8115 17.024C41.5342 17.312 41.2302 17.5573 40.8995 17.76C40.5795 17.952 40.2488 18.048 39.9075 18.048ZM38.1795 17.488C38.3075 17.488 38.4835 17.3973 38.7075 17.216C38.9422 17.024 39.1928 16.7893 39.4595 16.512C39.7262 16.224 39.9768 15.9253 40.2115 15.616C40.4462 15.296 40.6382 15.008 40.7875 14.752C40.9475 14.4853 41.0275 14.2827 41.0275 14.144C41.0275 14.0267 40.9902 13.9467 40.9155 13.904C40.8515 13.8613 40.7662 13.84 40.6595 13.84C40.4888 13.84 40.3022 13.904 40.0995 14.032C39.9075 14.1493 39.7528 14.2667 39.6355 14.384C39.5075 14.5013 39.3528 14.688 39.1715 14.944C39.0008 15.1893 38.8302 15.4613 38.6595 15.76C38.4888 16.0587 38.3448 16.3467 38.2275 16.624C38.1102 16.9013 38.0515 17.1253 38.0515 17.296C38.0515 17.424 38.0942 17.488 38.1795 17.488ZM42.5306 18.24C42.488 18.24 42.488 18.192 42.5306 18.096C42.584 18 42.632 17.8933 42.6746 17.776C42.728 17.6587 42.7813 17.5307 42.8346 17.392C42.9413 17.136 43.0586 16.848 43.1866 16.528C43.3146 16.208 43.4373 15.8987 43.5546 15.6C43.672 15.2907 43.7733 15.0293 43.8586 14.816C43.9546 14.592 44.0186 14.448 44.0506 14.384C43.9013 14.544 43.72 14.7467 43.5066 14.992C43.304 15.2267 43.112 15.456 42.9306 15.68C42.7493 15.904 42.6106 16.08 42.5146 16.208C42.4826 16.2507 42.456 16.272 42.4346 16.272C42.4133 16.272 42.4026 16.2453 42.4026 16.192C42.4026 16.1067 42.4293 16.0267 42.4826 15.952C42.6853 15.696 42.9093 15.408 43.1546 15.088C43.4106 14.768 43.64 14.4747 43.8426 14.208C44.0453 13.9307 44.1733 13.7493 44.2266 13.664C44.344 13.6427 44.5146 13.6107 44.7386 13.568C44.9733 13.5253 45.1333 13.4667 45.2186 13.392C45.2506 13.36 45.2826 13.344 45.3146 13.344C45.336 13.344 45.3466 13.3653 45.3466 13.408C45.3573 13.44 45.3466 13.4773 45.3146 13.52C45.2506 13.5947 45.1386 13.7707 44.9786 14.048C44.8293 14.3147 44.664 14.6133 44.4826 14.944C44.312 15.2747 44.152 15.5733 44.0026 15.84C44.1733 15.6373 44.3386 15.4453 44.4986 15.264C44.6693 15.0827 44.7866 14.9547 44.8506 14.88C44.9786 14.752 45.1546 14.592 45.3786 14.4C45.6026 14.208 45.8373 14.032 46.0826 13.872C46.328 13.712 46.5413 13.6213 46.7226 13.6C46.7653 13.5893 46.8026 13.584 46.8346 13.584C46.8666 13.584 46.8986 13.584 46.9306 13.584C47.1333 13.584 47.2346 13.6587 47.2346 13.808C47.2346 13.872 47.2186 13.9467 47.1866 14.032C47.1546 14.1173 47.112 14.2027 47.0586 14.288C46.9946 14.416 46.888 14.6187 46.7386 14.896C46.5893 15.1627 46.456 15.408 46.3386 15.632L47.0906 14.88C47.2186 14.752 47.3946 14.592 47.6186 14.4C47.8426 14.208 48.0773 14.032 48.3226 13.872C48.568 13.712 48.7813 13.6213 48.9626 13.6C49.0053 13.5893 49.0426 13.584 49.0746 13.584C49.1173 13.584 49.1493 13.584 49.1706 13.584C49.4053 13.584 49.5226 13.6693 49.5226 13.84C49.5226 13.968 49.4533 14.1387 49.3146 14.352C49.24 14.4693 49.1226 14.6667 48.9626 14.944C48.8026 15.2213 48.6373 15.5253 48.4666 15.856C48.3066 16.176 48.168 16.4747 48.0506 16.752C47.9333 17.0293 47.8746 17.232 47.8746 17.36C47.8746 17.5093 47.9493 17.584 48.0986 17.584C48.2373 17.584 48.4133 17.504 48.6266 17.344C48.8506 17.1733 49.0746 16.9707 49.2986 16.736C49.5333 16.5013 49.736 16.2773 49.9066 16.064C49.9813 15.9787 50.0506 15.8933 50.1146 15.808C50.1893 15.712 50.232 15.6587 50.2426 15.648C50.264 15.6693 50.2746 15.7067 50.2746 15.76C50.2746 15.8347 50.248 15.9093 50.1946 15.984C50.152 16.048 50.1093 16.1067 50.0666 16.16C49.864 16.4267 49.6293 16.704 49.3626 16.992C49.1066 17.28 48.824 17.5253 48.5146 17.728C48.2053 17.92 47.8746 18.032 47.5226 18.064C47.416 18.0747 47.3093 18.0533 47.2026 18C47.096 17.9467 47.0426 17.8613 47.0426 17.744C47.0426 17.5947 47.08 17.4187 47.1546 17.216C47.24 17.0133 47.3306 16.8107 47.4266 16.608C47.5333 16.4053 47.6133 16.24 47.6666 16.112C47.8586 15.7387 48.0346 15.3867 48.1946 15.056C48.3546 14.7253 48.4666 14.4907 48.5306 14.352C48.5626 14.288 48.5786 14.2347 48.5786 14.192C48.5786 14.1173 48.52 14.112 48.4026 14.176C48.2853 14.24 48.1413 14.336 47.9706 14.464C47.8106 14.592 47.6613 14.72 47.5226 14.848C47.384 14.9653 47.2933 15.0453 47.2506 15.088C47.0693 15.2693 46.8506 15.5147 46.5946 15.824C46.3493 16.1333 46.12 16.4587 45.9066 16.8C45.6933 17.1307 45.544 17.44 45.4586 17.728C45.352 17.824 45.2506 17.872 45.1546 17.872C45.08 17.872 45.016 17.8453 44.9626 17.792C44.92 17.7387 44.8986 17.6747 44.8986 17.6C44.8986 17.3867 44.9626 17.136 45.0906 16.848C45.2293 16.5493 45.3413 16.304 45.4266 16.112C45.6186 15.7387 45.7946 15.3867 45.9546 15.056C46.1146 14.7253 46.2266 14.4907 46.2906 14.352C46.3226 14.288 46.3386 14.2347 46.3386 14.192C46.3386 14.1173 46.28 14.112 46.1626 14.176C46.0453 14.24 45.9013 14.336 45.7306 14.464C45.5706 14.592 45.4213 14.72 45.2826 14.848C45.144 14.9653 45.0533 15.0453 45.0106 15.088C44.7546 15.3547 44.5146 15.6267 44.2906 15.904C44.0773 16.1813 43.896 16.48 43.7466 16.8C43.6613 16.992 43.5706 17.2053 43.4746 17.44C43.3786 17.6747 43.2986 17.872 43.2346 18.032C43.096 18.0427 42.9573 18.08 42.8186 18.144C42.68 18.208 42.584 18.24 42.5306 18.24Z" fill="black"/>
</svg>
