<svg width="102" height="31" viewBox="0 0 102 31" fill="none" xmlns="http://www.w3.org/2000/svg">
<path d="M2.16136 10.8749C2.16136 12.6745 2.53925 14.4219 2.53925 16.2074C2.53925 16.6446 2.44043 19.0831 2.91714 19.3355C3.30486 19.5407 4.19425 19.1885 4.61764 19.1885C5.75131 19.1885 6.88498 19.1885 8.01865 19.1885C8.83741 19.1885 9.65617 19.1885 10.4749 19.1885C11.0567 19.1885 11.0418 19.0845 11.0418 18.5272C11.0418 17.5289 10.6639 16.5237 10.6639 15.4936C10.6639 13.933 10.6639 12.3725 10.6639 10.8119C10.6639 9.74409 10.8076 8.98547 9.62468 8.98547C7.06767 8.98547 4.53376 9.55231 1.97241 9.55231" stroke="black" stroke-width="3" stroke-linecap="round"/>
<path d="M18.5995 7.09601C18.5995 10.7684 18.3028 14.567 18.8304 18.2018C18.9824 19.2484 18.9821 20.4377 19.2083 21.4558C19.2635 21.7044 19.4361 23.5879 19.1663 22.7784" stroke="black" stroke-width="3" stroke-linecap="round"/>
<path d="M19.3553 12.7643H26.3463" stroke="black" stroke-width="3" stroke-linecap="round"/>
<path d="M26.5353 5.20654C26.5353 11.3865 26.7242 17.564 26.7242 23.7231" stroke="black" stroke-width="3" stroke-linecap="round"/>
<path d="M37.683 5.39551C37.683 8.13955 36.3072 11.4393 35.2267 13.94C34.4078 15.8352 33.6095 17.8049 32.9594 19.7553" stroke="black" stroke-width="3" stroke-linecap="round"/>
<path d="M38.8167 9.36334C40.9436 11.1358 43.7654 12.2398 45.5137 14.4649C45.9991 15.0826 46.8645 16.4104 47.5081 16.7322" stroke="black" stroke-width="3" stroke-linecap="round"/>
<path d="M31.0699 26.3684C36.1245 26.3684 41.1886 26.5574 46.1855 26.5574" stroke="black" stroke-width="3" stroke-linecap="round"/>
<path d="M50.5312 7.66284H61.4901" stroke="black" stroke-width="3" stroke-linecap="round"/>
<path d="M51.8537 8.22968C51.8537 11.7474 51.4204 15.7594 52.4626 19.1465C52.7844 20.1925 55.4077 20.1332 56.294 20.1332C57.5372 20.1332 59.956 20.3557 60.7342 19.1885" stroke="black" stroke-width="3" stroke-linecap="round"/>
<path d="M52.0427 13.1423H61.6789" stroke="black" stroke-width="3" stroke-linecap="round"/>
<path d="M67.1584 4.82867C67.1584 8.78501 66.9037 12.8197 67.4943 16.7322C67.806 18.7971 68.1031 25.0557 68.1031 22.9674" stroke="black" stroke-width="3" stroke-linecap="round"/>
<path d="M67.7251 13.3312C68.9418 13.3312 70.8169 13.6748 71.8819 13.1423" stroke="black" stroke-width="3" stroke-linecap="round"/>
<path d="M81.5183 9.36336C81.9062 9.31487 81.7073 7.78408 81.7073 7.4844C81.7073 6.55048 81.8779 5.726 82.1271 4.82868C82.1807 4.63592 83.3136 1.66003 83.5547 1.84755C85.8108 3.60225 88.8654 4.78518 90.2098 7.47391" stroke="black" stroke-width="3" stroke-linecap="round"/>
<path d="M81.4279 19.7807C81.4419 19.3901 79.899 19.3422 79.6032 19.2944C78.6812 19.1453 77.8945 18.8453 77.0485 18.4561C76.8667 18.3725 74.1097 16.7792 74.3333 16.5711C76.4255 14.624 78.0807 11.7972 80.9495 10.8991" stroke="black" stroke-width="3" stroke-linecap="round"/>
<path d="M89.4775 25.051C89.1653 24.8158 88.2423 26.0532 88.0337 26.2683C87.3835 26.9387 86.687 27.4118 85.8834 27.8824C85.7107 27.9835 82.8256 29.3309 82.7831 29.0285C82.3852 26.1982 81.016 23.2224 81.9229 20.3564" stroke="black" stroke-width="3" stroke-linecap="round"/>
<path d="M95.3119 17C95.0635 17.3019 96.2604 18.2768 96.4664 18.4944C97.1084 19.1726 97.5513 19.8887 97.9872 20.7117C98.0808 20.8885 99.3039 23.8285 98.9999 23.858C96.1552 24.1347 93.1237 25.3756 90.299 24.3473" stroke="black" stroke-width="3" stroke-linecap="round"/>
<path d="M92 7.98382C92.149 8.34519 93.5732 7.7497 93.8623 7.67069C94.7631 7.42445 95.6034 7.37166 96.5347 7.37551C96.7348 7.37634 99.9041 7.68459 99.7868 7.96659C98.689 10.6055 98.3533 13.8639 96.1141 15.8696" stroke="black" stroke-width="3" stroke-linecap="round"/>
<path d="M84.2183 13.7062C84.2298 13.8217 84.2844 13.9182 84.2844 14.0368" stroke="black" stroke-width="1.5" stroke-linecap="round"/>
<path d="M88.2512 12.3178C88.2512 12.4733 88.3173 12.5771 88.3173 12.7145" stroke="black" stroke-width="1.5" stroke-linecap="round"/>
<path d="M85.2761 17.5409C85.2987 17.7442 85.7521 17.9704 85.9042 18.0992C86.1737 18.3272 86.4818 18.4587 86.7968 18.5987C87.229 18.7908 88.2176 18.8718 88.6443 18.6317C89.7291 18.0215 90.1686 16.8057 90.1686 15.6235" stroke="black" stroke-width="1.5" stroke-linecap="round"/>
</svg>
